# xmcd
#
# Track frame offsets:
#	150
#	21410
#	32702
#	47962
#	62870
#	77852
#	91920
#	102622
#	116330
#	129900
#	144582
#	162250
#	173550
#	192362
#
# Disc length: 2746
#
# Revision: 4
# Processed by: cddbd v1.5.1PL0 Copyright (c) Steve Scherf et al.
# Submitted via: FreeRIP 1.21
# Normalized: r2:DSETVAR1,TDELIM( - );r3:TSWAP
#
DISCID=be0ab80e
DTITLE=Various Artist - Mr Music Country 5-92
DYEAR=1992
DGENRE=Country
TTITLE0=Tim Ryan - No More Sad Songs
TTITLE1=George Jones - Pyramid Of Cans
TTITLE2=Ricky van Shelton and Dolly Parton - Rockin' Years
TTITLE3=Joe Diffie - Home
TTITLE4=Mary Chapin Carpenter - Down At The Twist And Shout
TTITLE5=Larry Boone - All I Have To Offer You Is Me
TTITLE6=Tammy Wynette - I'm Falling Heart Over Mind
TTITLE7=Willie Nelson - Ain't Necessarily So
TTITLE8=Vern Gosdin - Friday Night Feelin'
TTITLE9=Emmylou Harris and George Jones - All Fall Down
TTITLE10=Shelby Lynne - Things Are Tough All Over
TTITLE11=Richy Skaggs and Waylon Jennings - Only Daddy That'll Walk The Line
TTITLE12=Rodney Crowell - Many A Long and Lonesome Highway
TTITLE13=Sweethearts Of The Rodeo and George Jones - Traveller's Prayer
EXTD=www.timmie.dk
EXTT0=
EXTT1=
EXTT2=
EXTT3=
EXTT4=
EXTT5=
EXTT6=
EXTT7=
EXTT8=
EXTT9=
EXTT10=
EXTT11=
EXTT12=
EXTT13=
PLAYORDER=
